<?xml version="1.0" encoding="utf-8"?>
<!-- Generator: Adobe Illustrator 17.1.0, SVG Export Plug-In . SVG Version: 6.00 Build 0)  -->
<!DOCTYPE svg PUBLIC "-//W3C//DTD SVG 1.1//EN" "http://www.w3.org/Graphics/SVG/1.1/DTD/svg11.dtd">
<svg version="1.1" id="Layer_1" xmlns="http://www.w3.org/2000/svg" xmlns:xlink="http://www.w3.org/1999/xlink" x="0px" y="0px"
	 viewBox="0 232 470 137" enable-background="new 0 232 470 137" xml:space="preserve">
<circle fill="#333333" cx="4.5" cy="300" r="4.5"/>
<circle fill="#333333" cx="150.6" cy="300" r="4.5"/>
<path fill="#0F5470" d="M70,307.9H16.2c-0.2,0-0.3,0.1-0.3,0.3c3.3,29.4,27.7,52.5,57.6,53.7c0.2,0,0.3-0.1,0.3-0.3V310
	C72.4,309.7,71.1,308.9,70,307.9z"/>
<path fill="#0F5470" d="M81.2,238.4V290c1.5,0.4,2.8,1.1,3.9,2.1h53.8c0.2,0,0.3-0.1,0.3-0.3c-3.3-29.4-27.7-52.5-57.6-53.7
	C81.3,238.1,81.2,238.2,81.2,238.4z"/>
<path fill="#4EC5D8" d="M81.2,310v40.3c0,0.2,0.1,0.3,0.3,0.3c23.8-1.2,43.1-19.2,46.3-42.4c0-0.2-0.1-0.3-0.3-0.3H85.1
	C84,308.9,82.7,309.7,81.2,310z"/>
<path fill="#4EC5D8" d="M73.9,290v-40.3c0-0.2-0.1-0.3-0.3-0.3c-23.8,1.2-43.1,19.2-46.3,42.4c0,0.2,0.1,0.3,0.3,0.3H70
	C71.1,291.1,72.4,290.3,73.9,290z"/>
<path fill="#333333" d="M67.5,297.9H3.1v4.3h64.4c-0.2-0.7-0.3-1.4-0.3-2.1S67.3,298.5,67.5,297.9z"/>
<path fill="#333333" d="M87.6,297.9c0.2,0.7,0.3,1.4,0.3,2.1c0,0.7-0.1,1.5-0.3,2.1h63.5v-4.3H87.6z"/>
<circle fill="#333333" cx="77.5" cy="300" r="4.5"/>
<g>
	<path fill="#333333" d="M189.2,299.2h-7.1v-30.4h7.1V299.2z"/>
	<path fill="#333333" d="M200.2,268.8c0.2,0,0.4,0.1,0.6,0.2c0.2,0.1,0.3,0.2,0.5,0.3c0.2,0.1,0.3,0.3,0.5,0.6l14.4,18.2
		c-0.1-0.6-0.1-1.1-0.1-1.7c0-0.5,0-1.1,0-1.6v-16.1h6.2v30.4h-3.7c-0.5,0-1-0.1-1.4-0.3s-0.7-0.5-1.1-0.9l-14.3-18.1
		c0,0.5,0.1,1,0.1,1.6c0,0.5,0,1,0,1.4v16.3h-6.2v-30.4h3.7C199.7,268.8,200,268.8,200.2,268.8z"/>
	<path fill="#333333" d="M250.1,268.8v5.6h-8.6v24.8h-7v-24.8H226v-5.6C226,268.8,250.1,268.8,250.1,268.8z"/>
	<path fill="#333333" d="M273.5,268.8v5.4H261v7.1h9.6v5.2H261v7.2h12.5v5.4h-19.6v-30.4L273.5,268.8L273.5,268.8z"/>
	<path fill="#333333" d="M285.3,287.9v11.2h-7v-30.4h9.9c2.2,0,4.1,0.2,5.6,0.7c1.6,0.5,2.8,1.1,3.8,1.9c1,0.8,1.7,1.8,2.1,2.9
		s0.7,2.3,0.7,3.6c0,1-0.1,1.9-0.4,2.8c-0.3,0.9-0.7,1.7-1.2,2.4c-0.5,0.7-1.2,1.4-1.9,2c-0.8,0.6-1.6,1.1-2.6,1.4
		c0.5,0.2,0.9,0.5,1.3,0.9c0.4,0.3,0.8,0.8,1.1,1.3l6.5,10.6h-6.4c-1.2,0-2-0.4-2.5-1.3l-5-8.8c-0.2-0.4-0.5-0.7-0.8-0.8
		c-0.3-0.2-0.7-0.3-1.3-0.3L285.3,287.9L285.3,287.9z M285.3,283.1h2.8c1,0,1.8-0.1,2.4-0.4c0.7-0.2,1.2-0.6,1.7-1
		c0.4-0.4,0.7-0.9,0.9-1.5c0.2-0.6,0.3-1.2,0.3-1.9c0-1.3-0.4-2.4-1.3-3.1c-0.9-0.8-2.2-1.1-4-1.1h-2.8V283.1z"/>
	<path fill="#333333" d="M335.1,299.2h-5.5c-0.6,0-1.1-0.1-1.5-0.4c-0.4-0.3-0.7-0.6-0.8-1.1l-1.8-5.3H314l-1.8,5.3
		c-0.1,0.4-0.4,0.7-0.8,1.1c-0.4,0.3-0.9,0.5-1.5,0.5h-5.5l11.8-30.4h7.2L335.1,299.2z M315.6,287.6h8.3l-2.8-8.3
		c-0.2-0.5-0.4-1.1-0.6-1.9c-0.2-0.7-0.5-1.5-0.7-2.3c-0.2,0.8-0.5,1.6-0.7,2.4c-0.2,0.7-0.5,1.3-0.7,1.9L315.6,287.6z"/>
	<path fill="#333333" d="M357.6,291.3c0.2,0,0.3,0,0.5,0.1c0.2,0.1,0.3,0.2,0.5,0.3l2.8,2.9c-1.2,1.6-2.8,2.8-4.6,3.6
		c-1.8,0.8-4,1.2-6.5,1.2c-2.3,0-4.4-0.4-6.2-1.2c-1.8-0.8-3.4-1.9-4.7-3.3c-1.3-1.4-2.2-3-2.9-4.9c-0.7-1.9-1-4-1-6.2
		c0-2.3,0.4-4.3,1.2-6.2c0.8-1.9,1.9-3.5,3.3-4.9c1.4-1.4,3.1-2.4,5-3.2c1.9-0.8,4.1-1.1,6.4-1.1c1.1,0,2.2,0.1,3.2,0.3
		c1,0.2,1.9,0.5,2.8,0.8c0.9,0.4,1.7,0.8,2.4,1.3c0.7,0.5,1.4,1,2,1.6l-2.4,3.2c-0.2,0.2-0.3,0.4-0.5,0.5c-0.2,0.2-0.5,0.2-0.9,0.2
		c-0.3,0-0.5-0.1-0.7-0.2s-0.5-0.2-0.7-0.4c-0.3-0.2-0.5-0.3-0.8-0.5s-0.7-0.4-1.1-0.5c-0.4-0.2-0.9-0.3-1.4-0.4s-1.2-0.2-1.9-0.2
		c-1.3,0-2.4,0.2-3.5,0.7c-1.1,0.5-2,1.1-2.7,1.9c-0.8,0.8-1.3,1.9-1.8,3.1c-0.4,1.2-0.6,2.5-0.6,4c0,1.6,0.2,2.9,0.6,4.2
		s1,2.2,1.7,3.1c0.7,0.8,1.6,1.5,2.6,1.9c1,0.4,2,0.6,3.1,0.6c0.6,0,1.2,0,1.8-0.1s1-0.2,1.5-0.3c0.5-0.2,0.9-0.4,1.3-0.6
		c0.4-0.2,0.8-0.5,1.2-0.9c0.2-0.1,0.3-0.3,0.5-0.3C357.2,291.4,357.4,291.3,357.6,291.3z"/>
	<path fill="#333333" d="M387.5,268.8v5.6h-8.5v24.8h-7v-24.8h-8.6v-5.6C363.3,268.8,387.5,268.8,387.5,268.8z"/>
	<path fill="#333333" d="M399,299.2h-7.1v-30.4h7.1V299.2z"/>
	<path fill="#333333" d="M402.9,268.8h5.7c0.6,0,1.1,0.1,1.5,0.4c0.4,0.3,0.7,0.6,0.8,1.1l5.9,16.3c0.3,0.7,0.5,1.5,0.8,2.3
		c0.3,0.8,0.5,1.7,0.8,2.6c0.2-0.9,0.4-1.8,0.7-2.6c0.3-0.8,0.5-1.6,0.8-2.3l5.8-16.3c0.1-0.4,0.4-0.7,0.8-1.1
		c0.4-0.3,0.9-0.5,1.5-0.5h5.7l-12.2,30.4h-6.4L402.9,268.8z"/>
	<path fill="#333333" d="M456.6,268.8v5.4h-12.5v7.1h9.6v5.2h-9.6v7.2h12.5v5.4H437v-30.4L456.6,268.8L456.6,268.8z"/>
</g>
<g>
	<path fill="#333333" d="M186.4,335.5h-4.1v-28.4h4.1V335.5z"/>
	<path fill="#333333" d="M196.5,307.2c0.2,0.1,0.4,0.3,0.6,0.5l17.4,21.4c0-0.3-0.1-0.7-0.1-1c0-0.3,0-0.6,0-0.9v-20.1h3.6v28.4
		h-2.1c-0.3,0-0.6-0.1-0.8-0.2c-0.2-0.1-0.4-0.3-0.6-0.5l-17.4-21.4c0,0.3,0,0.7,0.1,1s0,0.6,0,0.9v20.2h-3.6v-28.4h2.1
		C196.1,307.1,196.3,307.1,196.5,307.2z"/>
	<path fill="#333333" d="M245,307.1v3.2h-9.7v25.2h-4.1v-25.2h-9.8v-3.2L245,307.1L245,307.1z"/>
	<path fill="#333333" d="M267,307.1v3.1h-14.4v9.4h11.7v3h-11.7v9.7H267v3.1h-18.5v-28.4H267z"/>
	<path fill="#333333" d="M276,332.3h13v3.2H272v-28.4h4.1L276,332.3L276,332.3z"/>
	<path fill="#333333" d="M296.8,332.3h13v3.2h-17.1v-28.4h4.1V332.3z"/>
	<path fill="#333333" d="M318.3,335.5h-4.1v-28.4h4.1V335.5z"/>
	<path fill="#333333" d="M338.9,332.7c0.8,0,1.6,0,2.2-0.1c0.7-0.1,1.3-0.2,1.9-0.3c0.6-0.1,1.2-0.3,1.7-0.5
		c0.5-0.2,1.1-0.4,1.6-0.7v-6.3h-4.7c-0.3,0-0.5-0.1-0.6-0.2c-0.2-0.1-0.2-0.3-0.2-0.5v-2.2h9.2v10.9c-0.8,0.5-1.5,1-2.4,1.3
		c-0.8,0.4-1.7,0.7-2.6,1c-0.9,0.3-1.9,0.4-3,0.6c-1.1,0.1-2.2,0.2-3.5,0.2c-2.2,0-4.2-0.4-6-1.1c-1.8-0.7-3.4-1.7-4.7-3
		c-1.3-1.3-2.3-2.8-3.1-4.6c-0.7-1.8-1.1-3.7-1.1-5.9c0-2.2,0.4-4.1,1.1-5.9c0.7-1.8,1.7-3.3,3.1-4.6c1.3-1.3,3-2.3,4.8-3
		c1.9-0.7,4-1,6.4-1c1.2,0,2.3,0.1,3.3,0.2c1,0.2,2,0.4,2.8,0.7c0.9,0.3,1.7,0.7,2.4,1.1c0.7,0.4,1.4,0.9,2.1,1.5l-1.2,1.7
		c-0.2,0.4-0.5,0.5-0.9,0.5c-0.2,0-0.5-0.1-0.7-0.2c-0.4-0.2-0.7-0.4-1.2-0.7c-0.4-0.3-1-0.5-1.6-0.8c-0.6-0.2-1.4-0.5-2.2-0.6
		c-0.8-0.2-1.9-0.3-3-0.3c-1.7,0-3.2,0.3-4.6,0.8c-1.4,0.5-2.5,1.3-3.5,2.2c-1,1-1.7,2.1-2.2,3.5c-0.5,1.4-0.8,2.9-0.8,4.6
		c0,1.8,0.3,3.4,0.8,4.8c0.5,1.4,1.3,2.6,2.3,3.6c1,1,2.1,1.7,3.5,2.2S337.3,332.7,338.9,332.7z"/>
	<path fill="#333333" d="M374,307.1v3.1h-14.4v9.4h11.7v3h-11.7v9.7H374v3.1h-18.5v-28.4H374z"/>
	<path fill="#333333" d="M381.9,307.2c0.2,0.1,0.4,0.3,0.6,0.5l17.4,21.4c0-0.3-0.1-0.7-0.1-1c0-0.3,0-0.6,0-0.9v-20.1h3.6v28.4
		h-2.1c-0.3,0-0.6-0.1-0.8-0.2c-0.2-0.1-0.4-0.3-0.6-0.5l-17.4-21.4c0,0.3,0,0.7,0.1,1c0,0.3,0,0.6,0,0.9v20.2H379v-28.4h2.1
		C381.5,307.1,381.7,307.1,381.9,307.2z"/>
	<path fill="#333333" d="M431.1,329.6c0.2,0,0.4,0.1,0.6,0.3l1.6,1.6c-1.2,1.3-2.7,2.4-4.5,3.2c-1.8,0.8-3.9,1.1-6.3,1.1
		c-2.2,0-4.1-0.4-5.9-1.1c-1.8-0.7-3.3-1.7-4.5-3c-1.2-1.3-2.2-2.8-2.9-4.6c-0.7-1.8-1-3.7-1-5.9s0.4-4.1,1.1-5.9
		c0.7-1.8,1.8-3.3,3.1-4.6c1.3-1.3,2.9-2.3,4.8-3c1.9-0.7,3.9-1.1,6.1-1.1c2.2,0,4.1,0.3,5.7,1s3,1.5,4.3,2.6l-1.3,1.8
		c-0.1,0.1-0.2,0.2-0.3,0.3c-0.1,0.1-0.3,0.1-0.5,0.1c-0.2,0-0.4-0.1-0.6-0.2c-0.2-0.1-0.4-0.3-0.7-0.5c-0.3-0.2-0.6-0.4-1-0.6
		c-0.4-0.2-0.8-0.4-1.3-0.6c-0.5-0.2-1.1-0.3-1.8-0.5c-0.7-0.1-1.5-0.2-2.4-0.2c-1.6,0-3.1,0.3-4.4,0.8c-1.3,0.5-2.5,1.3-3.5,2.2
		c-1,1-1.7,2.1-2.3,3.5s-0.8,2.9-0.8,4.7c0,1.8,0.3,3.3,0.8,4.7c0.5,1.4,1.3,2.6,2.2,3.5c0.9,1,2,1.7,3.3,2.2
		c1.3,0.5,2.6,0.8,4.1,0.8c0.9,0,1.7-0.1,2.4-0.1c0.7-0.1,1.4-0.3,2-0.5c0.6-0.2,1.2-0.5,1.7-0.8c0.5-0.3,1.1-0.7,1.6-1.2
		C430.6,329.7,430.9,329.6,431.1,329.6z"/>
	<path fill="#333333" d="M456.3,307.1v3.1h-14.4v9.4h11.7v3h-11.7v9.7h14.4v3.1h-18.5v-28.4H456.3z"/>
</g>
<g>
	<path fill="#333333" d="M458.6,308.8c0-0.2,0-0.4,0.1-0.7c0.1-0.2,0.1-0.4,0.2-0.6c0.1-0.2,0.2-0.3,0.4-0.5
		c0.2-0.2,0.3-0.3,0.5-0.4c0.2-0.1,0.4-0.2,0.6-0.2c0.2-0.1,0.4-0.1,0.7-0.1c0.2,0,0.4,0,0.7,0.1s0.4,0.1,0.6,0.2
		c0.2,0.1,0.3,0.2,0.5,0.4c0.2,0.2,0.3,0.3,0.4,0.5c0.1,0.2,0.2,0.4,0.2,0.6c0.1,0.2,0.1,0.4,0.1,0.7c0,0.2,0,0.4-0.1,0.7
		c-0.1,0.2-0.1,0.4-0.2,0.6c-0.1,0.2-0.2,0.3-0.4,0.5c-0.2,0.2-0.3,0.3-0.5,0.4c-0.2,0.1-0.4,0.2-0.6,0.2c-0.2,0.1-0.4,0.1-0.7,0.1
		c-0.2,0-0.4,0-0.7-0.1c-0.2-0.1-0.4-0.1-0.6-0.2c-0.2-0.1-0.3-0.2-0.5-0.4c-0.2-0.2-0.3-0.3-0.4-0.5c-0.1-0.2-0.2-0.4-0.2-0.6
		C458.6,309.3,458.6,309.1,458.6,308.8z M459,308.8c0,0.3,0.1,0.6,0.2,0.8c0.1,0.3,0.2,0.5,0.4,0.7c0.2,0.2,0.4,0.3,0.6,0.4
		c0.2,0.1,0.5,0.2,0.8,0.2c0.3,0,0.5-0.1,0.8-0.2c0.2-0.1,0.5-0.3,0.6-0.4c0.2-0.2,0.3-0.4,0.4-0.7c0.1-0.3,0.2-0.5,0.2-0.8
		c0-0.2,0-0.4-0.1-0.6c0-0.2-0.1-0.3-0.2-0.5c-0.1-0.2-0.2-0.3-0.3-0.4c-0.1-0.1-0.3-0.2-0.4-0.3c-0.1-0.1-0.3-0.2-0.5-0.2
		c-0.2,0-0.4-0.1-0.5-0.1c-0.2,0-0.4,0-0.5,0.1c-0.2,0-0.3,0.1-0.5,0.2c-0.1,0.1-0.3,0.2-0.4,0.3c-0.1,0.1-0.2,0.3-0.3,0.4
		c-0.1,0.2-0.2,0.3-0.2,0.5C459.1,308.5,459,308.7,459,308.8z M460.7,309.2v1.1H460v-3h1.1c0.4,0,0.7,0.1,0.9,0.2
		c0.2,0.1,0.3,0.4,0.3,0.6c0,0.2-0.1,0.4-0.2,0.5c-0.1,0.1-0.3,0.3-0.5,0.3c0.1,0,0.1,0.1,0.1,0.1c0,0,0.1,0.1,0.1,0.2l0.6,1h-0.7
		c-0.1,0-0.2,0-0.2-0.1l-0.5-0.9c0,0,0-0.1-0.1-0.1s-0.1,0-0.1,0H460.7z M460.7,308.7h0.3c0.1,0,0.2,0,0.3,0c0.1,0,0.1,0,0.2-0.1
		c0,0,0.1-0.1,0.1-0.1c0-0.1,0-0.1,0-0.2c0-0.1,0-0.1,0-0.2c0-0.1,0-0.1-0.1-0.1c0,0-0.1-0.1-0.2-0.1c-0.1,0-0.1,0-0.3,0h-0.4
		L460.7,308.7L460.7,308.7z"/>
</g>
</svg>
